<svg width="14" height="23" viewBox="0 0 14 23" fill="none" xmlns="http://www.w3.org/2000/svg">
<path d="M11.0667 22.5667L1.40005 12.9C1.17782 12.6778 1.02227 12.4555 0.933383 12.2333C0.844494 12.0111 0.800049 11.7667 0.800049 11.5C0.800049 11.2333 0.844494 10.9889 0.933383 10.7667C1.02227 10.5444 1.17782 10.3222 1.40005 10.1L11.0667 0.433325C11.2 0.299992 11.3449 0.200437 11.5014 0.134659C11.6578 0.068881 11.824 0.035103 12 0.0333252C12.3556 0.0333252 12.6667 0.155992 12.9334 0.401325C13.2 0.646659 13.3334 0.968436 13.3334 1.36666V21.6333C13.3334 22.0333 13.2 22.356 12.9334 22.6013C12.6667 22.8467 12.3556 22.9684 12 22.9667C11.9112 22.9667 11.6 22.8333 11.0667 22.5667Z" fill="#D3E2E0"/>
</svg>
