<svg width="13" height="23" viewBox="0 0 13 23" fill="none" xmlns="http://www.w3.org/2000/svg">
<path d="M2.45184 22.5667L12.1185 12.9C12.3407 12.6778 12.4963 12.4555 12.5852 12.2333C12.6741 12.0111 12.7185 11.7667 12.7185 11.5C12.7185 11.2333 12.6741 10.9889 12.5852 10.7667C12.4963 10.5444 12.3407 10.3222 12.1185 10.1L2.45184 0.433325C2.31851 0.299992 2.17362 0.200437 2.01718 0.134659C1.86073 0.068881 1.69451 0.035103 1.51851 0.0333252C1.16295 0.0333252 0.851842 0.155992 0.585175 0.401325C0.318508 0.646659 0.185176 0.968436 0.185176 1.36666V21.6333C0.185176 22.0333 0.318508 22.356 0.585175 22.6013C0.851842 22.8467 1.16295 22.9684 1.51851 22.9667C1.6074 22.9667 1.91851 22.8333 2.45184 22.5667Z" fill="#D3E2E0"/>
</svg>
